<svg width="322" height="321" viewBox="0 0 322 321" fill="none" xmlns="http://www.w3.org/2000/svg">
<rect width="322" height="321" fill="#1E1E1E"/>
<rect width="321" height="320" fill="#391811"/>
<path fill-rule="evenodd" clip-rule="evenodd" d="M111.46 46.8129C111.766 47.2086 112.219 47.491 112.753 47.5693C113.846 47.7296 114.862 46.9736 115.022 45.8807C116.334 36.9355 119.812 31.2811 124.192 27.3904C128.633 23.4452 134.136 21.1885 139.745 19.2982C140.905 18.9071 142.084 18.5286 143.261 18.1503L143.263 18.1496C147.609 16.7538 151.946 15.3611 155.337 13.3497C157.556 12.0335 159.51 10.3846 160.899 8.17598C160.955 8.08746 161.01 7.99826 161.063 7.90836C161.133 8.02442 161.204 8.13937 161.277 8.25322C162.714 10.4897 164.726 12.1847 167.005 13.5546C170.533 15.675 175.025 17.1812 179.489 18.6779L179.489 18.6781C180.649 19.0669 181.807 19.4551 182.946 19.8533C188.633 21.8422 194.091 24.1406 198.292 28.0007C202.413 31.7878 205.456 37.2046 206.048 45.729C206.062 45.9228 206.102 46.1083 206.166 46.2819C206.189 46.7113 206.35 47.1366 206.654 47.4862C207.379 48.3195 208.643 48.4072 209.476 47.6822C215.922 42.0731 221.904 40.3944 227.496 40.631C233.197 40.8721 238.681 43.1063 244.109 45.7213C245.196 46.2449 246.289 46.7892 247.384 47.3343C251.599 49.4326 255.841 51.544 259.834 52.539C262.414 53.1818 265.036 53.4063 267.633 52.8404C267.765 52.8116 267.897 52.7808 268.028 52.7481C268.003 52.8495 267.978 52.9513 267.955 53.0532C267.376 55.5974 267.591 58.1448 268.23 60.6447C269.206 64.4649 271.287 68.5159 273.373 72.5756L273.373 72.576C273.939 73.677 274.505 74.7786 275.049 75.8765C277.679 81.1792 279.974 86.6659 280.324 92.5959C280.67 98.444 279.131 104.902 273.734 112.154C273.097 113.01 273.246 114.207 274.054 114.882C274.386 115.23 274.844 115.459 275.361 115.495C283.892 116.088 289.342 119.109 293.172 123.201C297.073 127.369 299.424 132.781 301.468 138.415C301.876 139.542 302.275 140.687 302.674 141.834C304.216 146.261 305.767 150.716 307.923 154.213C309.316 156.471 311.029 158.463 313.275 159.883C313.322 159.912 313.368 159.941 313.414 159.97C313.474 160.006 313.534 160.042 313.594 160.078C313.511 160.127 313.429 160.177 313.347 160.228C311.13 161.611 309.463 163.557 308.125 165.769C306.078 169.155 304.641 173.485 303.201 177.826C302.812 178.998 302.423 180.171 302.021 181.327C300.076 186.924 297.765 192.42 293.777 196.857C289.863 201.212 284.215 204.673 275.347 206.001C274.826 205.956 274.288 206.114 273.862 206.485C273.029 207.21 272.941 208.473 273.666 209.306C279.275 215.753 280.954 221.734 280.718 227.327C280.476 233.027 278.242 238.511 275.627 243.939C275.104 245.026 274.559 246.119 274.014 247.214C271.916 251.43 269.804 255.671 268.81 259.665C268.167 262.245 267.942 264.866 268.508 267.463C268.524 267.538 268.541 267.613 268.559 267.687C268.572 267.745 268.586 267.802 268.6 267.859C268.499 267.833 268.397 267.809 268.295 267.785C265.751 267.206 263.204 267.422 260.704 268.06C256.883 269.036 252.832 271.117 248.773 273.203C247.672 273.769 246.57 274.335 245.472 274.879C240.169 277.509 234.683 279.804 228.753 280.155C222.905 280.501 216.447 278.962 209.194 273.564C208.308 272.905 207.055 273.088 206.396 273.975C206.097 274.376 205.971 274.853 206.005 275.316C204.681 284.205 201.242 289.796 196.93 293.621C192.541 297.516 187.106 299.71 181.561 301.538C180.412 301.917 179.245 302.283 178.078 302.649C173.783 303.995 169.49 305.341 166.134 307.315C163.934 308.61 161.997 310.241 160.62 312.439C160.572 312.517 160.523 312.596 160.476 312.675C160.408 312.562 160.338 312.449 160.266 312.337C158.83 310.101 156.817 308.406 154.538 307.036C151.011 304.915 146.519 303.409 142.054 301.913L142.046 301.91C140.889 301.522 139.734 301.134 138.598 300.737C132.911 298.748 127.453 296.45 123.252 292.59C119.13 288.803 116.087 283.386 115.495 274.861C115.419 273.76 114.463 272.928 113.361 273.005C112.844 273.041 112.386 273.271 112.054 273.618C104.881 278.897 98.4878 280.405 92.6928 280.063C86.7629 279.712 81.2762 277.417 75.9734 274.787C74.8756 274.243 73.7739 273.677 72.673 273.111L72.6725 273.111C68.6128 271.025 64.5618 268.944 60.7417 267.968C58.2417 267.33 55.6944 267.114 53.1502 267.693C53.0482 267.717 52.9465 267.741 52.845 267.767C52.8778 267.635 52.9086 267.504 52.9374 267.371C53.5032 264.774 53.2787 262.153 52.6359 259.573C51.641 255.579 49.5296 251.338 47.4313 247.123C46.8861 246.027 46.3418 244.934 45.8182 243.847C43.2033 238.419 40.969 232.935 40.7279 227.235C40.4913 221.642 42.17 215.661 47.7791 209.214C48.5042 208.381 48.4164 207.118 47.5832 206.393C47.0831 205.958 46.4282 205.815 45.8277 205.951C37.1474 204.588 31.586 201.154 27.7145 196.843C23.7209 192.397 21.4038 186.889 19.4514 181.28C19.0483 180.122 18.6576 178.947 18.2672 177.772C16.8214 173.422 15.3796 169.084 13.3287 165.692C11.9886 163.475 10.3204 161.526 8.10144 160.141C8.01954 160.089 7.93707 160.039 7.854 159.99C7.9603 159.927 8.06569 159.862 8.17017 159.796C10.4174 158.379 12.1331 156.393 13.5286 154.139C15.6899 150.648 17.2468 146.201 18.7937 141.783C19.1943 140.639 19.5943 139.496 20.004 138.373C22.0544 132.75 24.4115 127.349 28.3174 123.189C32.1525 119.105 37.6072 116.088 46.1386 115.495C46.9526 115.439 47.6189 114.903 47.8806 114.182C48.2238 113.523 48.1849 112.698 47.7116 112.063C42.3141 104.81 40.7752 98.352 41.121 92.5039C41.4716 86.574 43.7669 81.0873 46.3963 75.7845C46.9407 74.6867 47.5068 73.585 48.0725 72.484C50.1584 68.4242 52.2399 64.3731 53.2157 60.5528C53.8542 58.0528 54.0696 55.5055 53.4904 52.9613C53.4655 52.8522 53.4393 52.7434 53.4117 52.6349C53.5448 52.6674 53.6784 52.6978 53.8124 52.7261C56.408 53.2749 59.0227 53.023 61.5905 52.3502C65.5616 51.3097 69.7742 49.1414 73.959 46.9873C75.0493 46.4261 76.1377 45.8659 77.2194 45.3269C82.6128 42.6392 88.0603 40.339 93.729 40.0476C99.2208 39.7653 105.104 41.3637 111.46 46.8129ZM111.691 41.8868C113.462 33.9452 117.02 28.411 121.535 24.3999C126.61 19.892 132.763 17.4299 138.467 15.5077C139.792 15.061 141.08 14.6465 142.324 14.2461C146.587 12.8734 150.332 11.6677 153.296 9.90931C155.148 8.81146 156.557 7.56589 157.514 6.04595C158.46 4.54189 159.043 2.64047 159.043 0.0904541H163.043C163.043 2.62212 163.649 4.5438 164.643 6.09175C165.65 7.65994 167.134 8.96491 169.066 10.1263C172.181 11.9988 176.111 13.3194 180.51 14.7977L180.51 14.7977C181.728 15.2072 182.983 15.6288 184.266 16.0776C190.017 18.0887 196.152 20.6028 200.998 25.0552C205.372 29.0738 208.588 34.5671 209.714 42.3822C215.874 37.9162 221.876 36.3896 227.666 36.6345C234.24 36.9127 240.357 39.4735 245.845 42.1177C247.07 42.7077 248.255 43.2967 249.406 43.8688C253.562 45.9341 257.275 47.779 260.801 48.6576C262.989 49.2026 264.961 49.3289 266.782 48.9321C268.579 48.5405 270.366 47.61 272.156 45.8198L274.985 48.6482C273.182 50.4514 272.25 52.2085 271.855 53.9411C271.457 55.692 271.573 57.5696 272.105 59.6548C272.958 62.9947 274.754 66.4951 276.798 70.4805C277.394 71.6429 278.011 72.8465 278.633 74.0995C281.307 79.4917 283.917 85.5839 284.318 92.3598C284.677 98.4349 283.255 104.916 278.812 111.843C286.572 112.977 292.056 116.155 296.092 120.468C300.587 125.27 303.16 131.351 305.228 137.052C305.688 138.321 306.121 139.561 306.542 140.766C308.064 145.129 309.424 149.025 311.328 152.114C312.509 154.028 313.83 155.501 315.413 156.502C316.977 157.491 318.91 158.092 321.445 158.092V162.092C318.895 162.092 316.983 162.674 315.464 163.622C313.929 164.579 312.666 165.99 311.548 167.839C309.757 170.802 308.511 174.547 307.094 178.807L307.094 178.808C306.683 180.044 306.257 181.323 305.799 182.64C303.821 188.332 301.301 194.47 296.752 199.531C292.651 204.094 286.998 207.679 278.879 209.424C283.412 215.626 284.96 221.669 284.714 227.496C284.436 234.071 281.875 240.187 279.231 245.675C278.641 246.9 278.052 248.085 277.48 249.236C275.414 253.392 273.569 257.105 272.691 260.632C272.146 262.819 272.02 264.791 272.416 266.612C272.808 268.409 273.739 270.196 275.529 271.987L272.7 274.815C270.897 273.012 269.14 272.08 267.407 271.686C265.656 271.287 263.779 271.403 261.694 271.936C258.354 272.789 254.854 274.584 250.868 276.628L250.868 276.628L250.86 276.632L250.853 276.636C249.695 277.23 248.497 277.844 247.249 278.463C241.857 281.137 235.765 283.747 228.989 284.148C222.906 284.507 216.415 283.081 209.478 278.625C207.759 286.867 204.171 292.545 199.585 296.613C194.553 301.078 188.456 303.477 182.814 305.337C181.498 305.771 180.22 306.172 178.987 306.56L178.984 306.561C174.774 307.884 171.085 309.044 168.163 310.763C166.339 311.836 164.952 313.06 164.01 314.563C163.078 316.051 162.5 317.945 162.5 320.5H158.5C158.5 317.968 157.894 316.047 156.9 314.499C155.893 312.931 154.41 311.626 152.477 310.464C149.363 308.592 145.433 307.271 141.034 305.793L141.034 305.793C139.815 305.383 138.561 304.962 137.277 304.513C131.527 302.502 125.391 299.988 120.545 295.535C116.242 291.582 113.06 286.201 111.886 278.586C104.979 283.001 98.5159 284.414 92.4567 284.056C85.6808 283.655 79.5887 281.045 74.1964 278.371C72.9435 277.75 71.7398 277.132 70.5774 276.536C66.592 274.492 63.0916 272.697 59.7518 271.844C57.6666 271.311 55.789 271.195 54.0381 271.594C52.3055 271.988 50.5483 272.92 48.7452 274.723L45.9168 271.895C47.7069 270.104 48.6374 268.317 49.0291 266.52C49.4258 264.699 49.2995 262.727 48.7546 260.54C47.876 257.013 46.0311 253.3 43.9658 249.144C43.3937 247.993 42.8047 246.808 42.2146 245.583C39.5705 240.095 37.0096 233.979 36.7315 227.404C36.4859 221.599 38.0216 215.579 42.5165 209.401C34.4518 207.647 28.8264 204.067 24.7386 199.516C20.1853 194.447 17.6587 188.298 15.6736 182.595C15.2146 181.276 14.7876 179.994 14.3751 178.756C12.9525 174.486 11.7019 170.732 9.90569 167.761C8.78485 165.908 7.51941 164.493 5.98255 163.533C4.46175 162.583 2.54971 162 0 162V158C2.53592 158 4.47121 157.4 6.03686 156.413C7.62169 155.413 8.94498 153.943 10.1277 152.033C12.0358 148.951 13.4002 145.063 14.9281 140.709L14.9283 140.708L14.9284 140.708L14.9285 140.707L14.9289 140.706C15.3505 139.505 15.7846 138.268 16.246 137.002C18.3206 131.313 20.901 125.244 25.4013 120.451C29.443 116.147 34.9301 112.974 42.6916 111.843C38.2031 104.881 36.7672 98.3696 37.128 92.2678C37.5286 85.4919 40.1389 79.3998 42.8127 74.0075C43.434 72.7546 44.0514 71.5509 44.6476 70.3885C46.6917 66.4031 48.487 62.9027 49.3401 59.5629C49.8727 57.4777 49.9888 55.6001 49.5902 53.8492C49.1957 52.1166 48.2638 50.3594 46.4607 48.5563L49.2891 45.7279C51.0781 47.5169 52.8569 48.4357 54.6398 48.8126C56.4467 49.1946 58.4034 49.0502 60.5766 48.4808C64.0792 47.5631 67.7622 45.6706 71.8872 43.551C73.0339 42.9618 74.2147 42.355 75.4354 41.7468C80.8874 39.0299 86.9703 36.3897 93.5236 36.0529C99.373 35.7522 105.447 37.2896 111.691 41.8868Z" fill="white"/>
<path fill-rule="evenodd" clip-rule="evenodd" d="M115.658 59.7121C115.963 60.0986 116.411 60.3737 116.937 60.4506C118.03 60.6104 119.046 59.8539 119.205 58.7609C120.362 50.8503 123.423 45.869 127.264 42.446C131.166 38.9688 136.007 36.9733 140.975 35.2939C141.995 34.9487 143.035 34.6139 144.076 34.2785L144.076 34.2784C147.932 33.036 151.812 31.7863 154.843 29.9826C156.807 28.8141 158.55 27.3471 159.802 25.3823C161.099 27.4063 162.912 28.9346 164.951 30.1641C168.102 32.0646 172.118 33.415 176.078 34.7471C177.103 35.0918 178.125 35.4353 179.126 35.7868C184.165 37.5545 188.965 39.5864 192.654 42.9863C196.263 46.3135 198.939 51.0781 199.46 58.6097C199.473 58.7959 199.511 58.9743 199.57 59.142C199.602 59.5574 199.762 59.9667 200.055 60.3051C200.779 61.1398 202.04 61.2276 202.872 60.5014C208.548 55.5473 213.796 54.0765 218.693 54.2843C223.698 54.4967 228.526 56.4657 233.335 58.7901C234.291 59.2523 235.256 59.734 236.223 60.2174C239.963 62.0852 243.753 63.9783 247.32 64.8699C249.63 65.4471 251.99 65.6523 254.336 65.1395L254.339 65.139C253.837 67.4201 254.036 69.6965 254.601 71.9177C255.473 75.343 257.335 78.9776 259.186 82.5918L259.187 82.5935C259.687 83.5688 260.185 84.5425 260.664 85.5103C262.993 90.222 265.01 95.0684 265.318 100.296C265.621 105.441 264.275 111.133 259.519 117.546C258.886 118.399 259.031 119.591 259.828 120.269C260.159 120.61 260.613 120.836 261.125 120.871C268.633 121.394 273.41 124.059 276.764 127.654C280.19 131.326 282.262 136.103 284.073 141.112C284.433 142.106 284.785 143.12 285.138 144.137C286.505 148.077 287.891 152.07 289.817 155.204C291.059 157.225 292.594 159.021 294.614 160.307C292.651 161.558 291.176 163.297 289.995 165.257C288.166 168.292 286.881 172.176 285.603 176.04C285.26 177.079 284.916 178.117 284.563 179.137C282.84 184.111 280.803 188.964 277.298 192.876C273.871 196.702 268.923 199.752 261.134 200.93C260.618 200.889 260.086 201.048 259.665 201.416C258.833 202.142 258.746 203.407 259.469 204.242C264.408 209.935 265.874 215.201 265.666 220.114C265.455 225.135 263.492 229.978 261.175 234.803C260.715 235.762 260.235 236.728 259.753 237.699L259.753 237.701C257.891 241.452 256.004 245.255 255.115 248.834C254.54 251.15 254.335 253.519 254.846 255.872L254.847 255.875C252.573 255.372 250.304 255.571 248.09 256.138C244.676 257.013 241.053 258.881 237.45 260.738L237.45 260.738C236.478 261.239 235.506 261.74 234.541 262.22C229.845 264.557 225.014 266.58 219.803 266.89C214.675 267.194 209.001 265.843 202.609 261.071C201.724 260.411 200.473 260.595 199.815 261.482C199.525 261.873 199.399 262.335 199.423 262.785C198.255 270.642 195.228 275.565 191.45 278.928C187.594 282.36 182.813 284.301 177.903 285.924C176.894 286.258 175.865 286.582 174.834 286.906C171.022 288.104 167.181 289.312 164.181 291.083C162.243 292.227 160.521 293.671 159.281 295.612C157.984 293.591 156.173 292.064 154.136 290.836C150.985 288.935 146.969 287.585 143.009 286.253L143.008 286.253L143.004 286.251L143 286.25L142.995 286.249L142.994 286.248L142.993 286.248L142.992 286.248C141.973 285.905 140.957 285.563 139.96 285.213C134.922 283.446 130.122 281.414 126.433 278.014C122.824 274.686 120.148 269.922 119.627 262.39C119.55 261.288 118.595 260.457 117.493 260.533C116.984 260.568 116.532 260.792 116.201 261.13C109.887 265.788 104.274 267.109 99.1965 266.808C93.9862 266.499 89.1554 264.475 84.4588 262.138C83.4936 261.658 82.5224 261.158 81.5497 260.656L81.5496 260.656C77.947 258.799 74.3242 256.931 70.9101 256.056C68.696 255.489 66.4269 255.29 64.1532 255.793L64.1537 255.791C64.6649 253.437 64.4603 251.069 63.885 248.752C62.9963 245.173 61.1092 241.371 59.2474 237.619L59.2465 237.617C58.765 236.647 58.2851 235.68 57.8247 234.721C55.5079 229.897 53.5452 225.054 53.3335 220.032C53.1263 215.119 54.5924 209.854 59.5305 204.16C60.2544 203.325 60.1668 202.06 59.3349 201.334C58.8453 200.907 58.207 200.761 57.617 200.884C49.9997 199.674 45.1315 196.648 41.7431 192.864C38.2332 188.943 36.1902 184.079 34.4608 179.095C34.1063 178.073 33.7618 177.033 33.4169 175.992C32.1341 172.119 30.8454 168.229 29.013 165.188C27.8295 163.224 26.3528 161.482 24.3879 160.229C26.4077 158.945 27.9445 157.154 29.189 155.138C31.1192 152.01 32.5101 148.024 33.8823 144.092C34.2363 143.077 34.5892 142.066 34.9497 141.074C36.7664 136.076 38.8441 131.309 42.2743 127.644C45.6334 124.055 50.4144 121.395 57.9235 120.871C58.7389 120.815 59.4059 120.277 59.6666 119.554C59.9915 118.9 59.9462 118.09 59.4814 117.464C54.7249 111.052 53.3786 105.359 53.6819 100.214C53.9899 94.9866 56.0074 90.1402 58.3362 85.4285C58.8144 84.4611 59.3129 83.4877 59.8123 82.5128L59.8132 82.5111L59.8137 82.5099C61.665 78.8957 63.5266 75.2611 64.3987 71.8359C64.9659 69.6079 65.1639 67.3244 64.6567 65.0363L64.6649 65.0381C67.0103 65.5356 69.3653 65.3055 71.664 64.7013C75.2112 63.7688 78.9761 61.8245 82.6888 59.9071C83.6523 59.4095 84.6123 58.9137 85.564 58.4379C90.3427 56.0489 95.137 54.0219 100.114 53.7653C104.916 53.5176 110.07 54.9137 115.658 59.7121ZM115.883 54.7937C117.487 47.868 120.626 43.0038 124.603 39.4598C129.138 35.4181 134.631 33.2163 139.693 31.5046C140.878 31.1039 142.027 30.733 143.133 30.3756L143.133 30.3756C146.907 29.1564 150.193 28.0947 152.798 26.5451C154.418 25.5812 155.637 24.496 156.461 23.1821C157.275 21.8837 157.784 20.2335 157.784 18H161.784C161.784 20.2152 162.312 21.8831 163.168 23.2211C164.038 24.579 165.323 25.7178 167.016 26.7388C169.755 28.3902 173.207 29.5541 177.102 30.8677C178.186 31.2331 179.304 31.6101 180.451 32.0123C185.553 33.8026 191.032 36.0513 195.365 40.0452C199.214 43.5932 202.054 48.4166 203.106 55.22C208.502 51.3863 213.771 50.0654 218.862 50.2814C224.74 50.5309 230.199 52.8271 235.068 55.1807C236.162 55.7094 237.218 56.2359 238.242 56.7463C241.923 58.581 245.185 60.2073 248.286 60.9823C250.203 61.4615 251.915 61.5684 253.486 61.2249C255.034 60.8866 256.581 60.0822 258.141 58.5171L260.965 61.3501C259.392 62.9282 258.589 64.4546 258.25 65.9493C257.907 67.4622 258.004 69.0947 258.471 70.9262C259.22 73.8702 260.796 76.9531 262.605 80.4926L262.606 80.4928L262.606 80.4931L262.606 80.494C263.136 81.531 263.686 82.6071 264.242 83.7304C266.615 88.5318 268.947 93.9846 269.305 100.059C269.621 105.429 268.391 111.144 264.572 117.235C271.324 118.293 276.133 121.113 279.689 124.926C283.707 129.232 286.001 134.678 287.835 139.752C288.246 140.888 288.631 141.996 289.005 143.07L289.006 143.073L289.006 143.073L289.006 143.073C290.354 146.949 291.55 150.384 293.224 153.109C294.26 154.793 295.409 156.074 296.775 156.941C298.121 157.795 299.792 158.319 302 158.319V162.319C299.777 162.319 298.125 162.828 296.819 163.645C295.497 164.472 294.4 165.697 293.42 167.322C291.846 169.935 290.752 173.234 289.497 177.018L289.497 177.019C289.131 178.122 288.752 179.266 288.343 180.446C286.587 185.514 284.341 191.009 280.277 195.545C276.664 199.579 271.706 202.755 264.638 204.342C268.533 209.802 269.874 215.133 269.656 220.283C269.408 226.181 267.119 231.657 264.773 236.542C264.246 237.639 263.721 238.699 263.212 239.726L263.212 239.726C261.384 243.418 259.763 246.691 258.99 249.802C258.512 251.726 258.406 253.443 258.748 255.019C259.085 256.572 259.887 258.124 261.447 259.689L258.623 262.522C257.05 260.944 255.529 260.139 254.039 259.799C252.531 259.454 250.904 259.552 249.078 260.02C246.144 260.772 243.071 262.353 239.542 264.168L239.539 264.17C238.506 264.701 237.434 265.253 236.315 265.81C231.529 268.19 226.094 270.53 220.039 270.889C214.676 271.207 208.967 269.967 202.881 266.117C201.323 273.318 198.154 278.316 194.109 281.916C189.611 285.92 184.168 288.066 179.159 289.722C177.981 290.112 176.841 290.471 175.743 290.817C172.017 291.993 168.78 293.013 166.214 294.528C164.619 295.47 163.419 296.535 162.609 297.834C161.807 299.118 161.303 300.762 161.303 303H157.303C157.303 300.785 156.775 299.117 155.918 297.779C155.049 296.421 153.763 295.282 152.07 294.261C149.332 292.61 145.88 291.446 141.985 290.133L141.984 290.132L141.982 290.132C140.899 289.766 139.782 289.39 138.636 288.988C133.534 287.197 128.055 284.949 123.722 280.955C119.932 277.461 117.12 272.731 116.03 266.091C109.978 269.897 104.298 271.124 98.9608 270.807C92.9059 270.448 87.4706 268.109 82.6847 265.728C81.5656 265.171 80.4934 264.619 79.4603 264.088L79.4575 264.086C75.9293 262.271 72.8563 260.69 69.9218 259.938C68.0962 259.47 66.4689 259.373 64.9608 259.717C63.471 260.057 61.9495 260.863 60.3765 262.441L57.5526 259.608C59.1127 258.043 59.9145 256.49 60.2517 254.938C60.594 253.361 60.4876 251.644 60.0099 249.72C59.2373 246.609 57.6164 243.337 55.7875 239.644C55.2788 238.617 54.754 237.558 54.2269 236.46C51.8809 231.575 49.5922 226.099 49.3435 220.202C49.1272 215.071 50.4567 209.76 54.3182 204.321C47.2978 202.726 42.3646 199.555 38.7629 195.532C34.695 190.988 32.4435 185.484 30.6818 180.406C30.2716 179.224 29.8909 178.078 29.5239 176.973C28.2643 173.18 27.1659 169.873 25.5871 167.253C24.6052 165.624 23.5056 164.396 22.1817 163.566C20.8741 162.747 19.2225 162.237 17 162.237V158.237C19.2087 158.237 20.8809 157.714 22.229 156.861C23.5966 155.996 24.748 154.717 25.7851 153.037C27.4632 150.318 28.6625 146.89 30.0157 143.021L30.0158 143.021L30.0158 143.021C30.391 141.948 30.778 140.842 31.1903 139.708C33.0309 134.644 35.3309 129.209 39.3538 124.91C42.9148 121.106 47.7266 118.291 54.4795 117.235C50.6203 111.113 49.3774 105.371 49.6953 99.9773C50.0533 93.9028 52.3852 88.45 54.7584 83.6486C55.3138 82.5248 55.8642 81.4483 56.3944 80.411L56.3945 80.4109C58.2039 76.8714 59.7798 73.7884 60.5294 70.8444C60.9957 69.0129 61.093 67.3804 60.7497 65.8674C60.4106 64.3728 59.608 62.8464 58.035 61.2683L60.8588 58.4353C62.4177 59.9992 63.9571 60.7929 65.491 61.1183C67.049 61.4487 68.747 61.3263 70.6518 60.8256C73.7313 60.0162 76.9673 58.3481 80.6203 56.4652L80.6206 56.465L80.6231 56.4638C81.642 55.9386 82.6934 55.3966 83.7829 54.852C88.62 52.4338 94.0487 50.0663 99.9085 49.7641C105.062 49.4983 110.404 50.8331 115.883 54.7937Z" fill="#CDA932"/>
<path d="M117.837 165.956V193.676C117.837 197.577 118.247 200.401 119.069 202.146C119.89 203.891 121.327 205.072 123.381 205.688C125.434 206.304 128.771 206.715 133.391 206.92V210C128.052 209.692 120.506 209.538 110.753 209.538C101.923 209.538 95.3528 209.692 91.0408 210V206.92C94.7368 206.715 97.4061 206.304 99.0488 205.688C100.794 205.072 101.975 203.891 102.591 202.146C103.207 200.401 103.515 197.577 103.515 193.676V117.292C103.515 113.391 103.207 110.567 102.591 108.822C101.975 107.077 100.794 105.896 99.0488 105.28C97.4061 104.664 94.7368 104.253 91.0408 104.048V100.968C95.3528 101.276 101.615 101.43 109.829 101.43L126.461 101.276C128.411 101.173 130.619 101.122 133.083 101.122C145.095 101.122 154.283 103.894 160.649 109.438C167.014 114.879 170.197 122.22 170.197 131.46C170.197 137.107 168.913 142.548 166.347 147.784C163.883 152.917 159.622 157.229 153.565 160.72C147.61 164.211 139.653 165.956 129.695 165.956H117.837ZM129.233 104.048C126.05 104.048 123.637 104.407 121.995 105.126C120.455 105.845 119.377 107.128 118.761 108.976C118.145 110.824 117.837 113.596 117.837 117.292V162.876H128.155C138.216 162.876 145.146 160.207 148.945 154.868C152.846 149.427 154.797 142.189 154.797 133.154C154.797 123.195 152.795 115.855 148.791 111.132C144.889 106.409 138.37 104.048 129.233 104.048ZM173.117 236.026C180.303 235.821 185.591 233.151 188.979 228.018C192.469 222.885 194.215 214.209 194.215 201.992V117.292C194.215 113.391 193.907 110.567 193.291 108.822C192.675 107.077 191.494 105.896 189.749 105.28C188.106 104.664 185.437 104.253 181.741 104.048V100.968C186.053 101.276 192.521 101.43 201.145 101.43C209.563 101.43 216.185 101.276 221.011 100.968V104.048C217.315 104.253 214.594 104.664 212.849 105.28C211.206 105.896 210.077 107.077 209.461 108.822C208.845 110.567 208.537 113.391 208.537 117.292V173.656C208.537 182.383 208.383 190.134 208.075 196.91C207.767 203.583 207.048 209.23 205.919 213.85C204.071 221.345 200.272 227.402 194.523 232.022C188.876 236.642 181.741 238.952 173.117 238.952V236.026Z" fill="#CDA932"/>
</svg>
